# xmcd CD database file
#
# Track frame offsets:
#	150
#	9270
#	22475
#	36052
#	48360
#	59300
#	71092
#	81632
#	93352
#	113662
#	121740
#	131497
#	141237
#	151865
#	165602
#
# Disc length: 2375 seconds
#
# Revision: 2
# Processed by: cddbd v1.5.2PL0 Copyright (c) Steve Scherf et al.
# Submitted via: jetAudio 7
#
DISCID=c609450f
DTITLE=Various Artist - Country Cowboy Festival Disc 2
DYEAR=1988
DGENRE=Country
TTITLE0=Singing The Blues
TTITLE1=Love Me Tender
TTITLE2=Do Not Forsake Me (High Noon)
TTITLE3=Rain And Tears
TTITLE4=While I'm Away
TTITLE5=Letter To Heaven
TTITLE6=What Am I Living For
TTITLE7=Loving Me Dry
TTITLE8=Love Hurts
TTITLE9=(And You Had) Do-Wacka-Do
TTITLE10=Walk Right In
TTITLE11=Rock Island Line
TTITLE12=You Win Again
TTITLE13=Train To Santa Fé
TTITLE14=The Haunted House
EXTD=Country and Western Festival ID3G:   2 YEAR: 1988
EXTT0=
EXTT1=
EXTT2=
EXTT3=
EXTT4=
EXTT5=
EXTT6=
EXTT7=
EXTT8=
EXTT9=
EXTT10=
EXTT11=
EXTT12=
EXTT13=
EXTT14=
PLAYORDER=
